<?xml version="1.0" encoding="us-ascii" standalone="no"?><svg xmlns="http://www.w3.org/2000/svg" xmlns:xlink="http://www.w3.org/1999/xlink" contentStyleType="text/css" height="895px" preserveAspectRatio="none" style="width:591px;height:895px;background:#FFFFFF;" version="1.1" viewBox="0 0 591 895" width="591px" zoomAndPan="magnify"><defs/><g><text fill="#000000" font-family="sans-serif" font-size="14" font-weight="bold" lengthAdjust="spacing" textLength="274" x="160.25" y="27.9951">Sequ&#234;ncia de eventos da vers&#227;o 1</text><rect fill="none" height="162.7969" style="stroke:#000000;stroke-width:1.5;" width="575.5" x="10" y="135.5938"/><rect fill="none" height="279.3281" style="stroke:#000000;stroke-width:1.5;" width="575.5" x="10" y="312.3906"/><rect fill="none" height="191.9297" style="stroke:#000000;stroke-width:1.5;" width="575.5" x="10" y="605.7188"/><line style="stroke:#181818;stroke-width:0.5;stroke-dasharray:5.0,5.0;" x1="49" x2="49" y1="118.5938" y2="814.6484"/><line style="stroke:#181818;stroke-width:0.5;stroke-dasharray:5.0,5.0;" x1="227" x2="227" y1="118.5938" y2="814.6484"/><line style="stroke:#181818;stroke-width:0.5;stroke-dasharray:5.0,5.0;" x1="557.5" x2="557.5" y1="118.5938" y2="814.6484"/><text fill="#000000" font-family="sans-serif" font-size="14" lengthAdjust="spacing" textLength="52" x="20" y="115.292">Usu&#225;rio</text><ellipse cx="49" cy="50.7969" fill="#E2E2F0" rx="8" ry="8" style="stroke:#181818;stroke-width:0.5;"/><path d="M49,58.7969 L49,85.7969 M36,66.7969 L62,66.7969 M49,85.7969 L36,100.7969 M49,85.7969 L62,100.7969 " fill="none" style="stroke:#181818;stroke-width:0.5;"/><text fill="#000000" font-family="sans-serif" font-size="14" lengthAdjust="spacing" textLength="52" x="20" y="826.6436">Usu&#225;rio</text><ellipse cx="49" cy="838.4453" fill="#E2E2F0" rx="8" ry="8" style="stroke:#181818;stroke-width:0.5;"/><path d="M49,846.4453 L49,873.4453 M36,854.4453 L62,854.4453 M49,873.4453 L36,888.4453 M49,873.4453 L62,888.4453 " fill="none" style="stroke:#181818;stroke-width:0.5;"/><rect fill="#E2E2F0" height="30.2969" rx="2.5" ry="2.5" style="stroke:#181818;stroke-width:0.5;" width="74" x="190" y="87.2969"/><text fill="#000000" font-family="sans-serif" font-size="14" lengthAdjust="spacing" textLength="60" x="197" y="107.292">Interface</text><rect fill="#E2E2F0" height="30.2969" rx="2.5" ry="2.5" style="stroke:#181818;stroke-width:0.5;" width="74" x="190" y="813.6484"/><text fill="#000000" font-family="sans-serif" font-size="14" lengthAdjust="spacing" textLength="60" x="197" y="833.6436">Interface</text><rect fill="#E2E2F0" height="30.2969" rx="2.5" ry="2.5" style="stroke:#181818;stroke-width:0.5;" width="35" x="540.5" y="87.2969"/><text fill="#000000" font-family="sans-serif" font-size="14" lengthAdjust="spacing" textLength="21" x="547.5" y="107.292">API</text><rect fill="#E2E2F0" height="30.2969" rx="2.5" ry="2.5" style="stroke:#181818;stroke-width:0.5;" width="35" x="540.5" y="813.6484"/><text fill="#000000" font-family="sans-serif" font-size="14" lengthAdjust="spacing" textLength="21" x="547.5" y="833.6436">API</text><path d="M10,135.5938 L190,135.5938 L190,142.7266 L180,152.7266 L10,152.7266 L10,135.5938 " fill="#EEEEEE" style="stroke:#000000;stroke-width:1.5;"/><rect fill="none" height="162.7969" style="stroke:#000000;stroke-width:1.5;" width="575.5" x="10" y="135.5938"/><text fill="#000000" font-family="sans-serif" font-size="13" font-weight="bold" lengthAdjust="spacing" textLength="135" x="25" y="148.6606">Cria&#231;&#227;o de sess&#227;o</text><polygon fill="#181818" points="215,169.8594,225,173.8594,215,177.8594,219,173.8594" style="stroke:#181818;stroke-width:1.0;"/><line style="stroke:#181818;stroke-width:1.0;" x1="49" x2="221" y1="173.8594" y2="173.8594"/><text fill="#000000" font-family="sans-serif" font-size="13" lengthAdjust="spacing" textLength="74" x="56" y="168.7935">Cria sess&#227;o</text><polygon fill="#181818" points="546,198.9922,556,202.9922,546,206.9922,550,202.9922" style="stroke:#181818;stroke-width:1.0;"/><line style="stroke:#181818;stroke-width:1.0;" x1="227" x2="552" y1="202.9922" y2="202.9922"/><text fill="#000000" font-family="sans-serif" font-size="13" lengthAdjust="spacing" textLength="177" x="234" y="197.9263">Requisita cria&#231;&#227;o de sess&#227;o</text><polygon fill="#181818" points="238,228.125,228,232.125,238,236.125,234,232.125" style="stroke:#181818;stroke-width:1.0;"/><line style="stroke:#181818;stroke-width:1.0;" x1="232" x2="557" y1="232.125" y2="232.125"/><text fill="#000000" font-family="sans-serif" font-size="13" lengthAdjust="spacing" textLength="165" x="244" y="227.0591">Retorna c&#243;digo de sess&#227;o</text><polygon fill="#FF0000" points="238,257.2578,228,261.2578,238,265.2578,234,261.2578" style="stroke:#FF0000;stroke-width:1.0;"/><line style="stroke:#FF0000;stroke-width:2.0;" x1="540" x2="550" y1="256.2578" y2="266.2578"/><line style="stroke:#FF0000;stroke-width:2.0;" x1="540" x2="550" y1="266.2578" y2="256.2578"/><line style="stroke:#FF0000;stroke-width:1.0;" x1="232" x2="545" y1="261.2578" y2="261.2578"/><text fill="#000000" font-family="sans-serif" font-size="13" font-weight="bold" lengthAdjust="spacing" textLength="39" x="244" y="256.1919">[400]</text><text fill="#000000" font-family="sans-serif" font-size="13" lengthAdjust="spacing" textLength="100" x="287" y="256.1919">Dados inv&#225;lidos</text><polygon fill="#181818" points="60,286.3906,50,290.3906,60,294.3906,56,290.3906" style="stroke:#181818;stroke-width:1.0;"/><line style="stroke:#181818;stroke-width:1.0;" x1="54" x2="226" y1="290.3906" y2="290.3906"/><text fill="#000000" font-family="sans-serif" font-size="13" lengthAdjust="spacing" textLength="149" x="66" y="285.3247">Exibe c&#243;digo de sess&#227;o</text><path d="M10,312.3906 L89,312.3906 L89,319.5234 L79,329.5234 L10,329.5234 L10,312.3906 " fill="#EEEEEE" style="stroke:#000000;stroke-width:1.5;"/><rect fill="none" height="279.3281" style="stroke:#000000;stroke-width:1.5;" width="575.5" x="10" y="312.3906"/><text fill="#000000" font-family="sans-serif" font-size="13" font-weight="bold" lengthAdjust="spacing" textLength="34" x="25" y="325.4575">Voto</text><polygon fill="#181818" points="215,346.6563,225,350.6563,215,354.6563,219,350.6563" style="stroke:#181818;stroke-width:1.0;"/><line style="stroke:#181818;stroke-width:1.0;" x1="49" x2="221" y1="350.6563" y2="350.6563"/><text fill="#000000" font-family="sans-serif" font-size="13" lengthAdjust="spacing" textLength="154" x="56" y="345.5903">Insere c&#243;digo de sess&#227;o</text><polygon fill="#181818" points="546,375.7891,556,379.7891,546,383.7891,550,379.7891" style="stroke:#181818;stroke-width:1.0;"/><line style="stroke:#181818;stroke-width:1.0;" x1="227" x2="552" y1="379.7891" y2="379.7891"/><text fill="#000000" font-family="sans-serif" font-size="13" lengthAdjust="spacing" textLength="151" x="234" y="374.7231">Busca dados da sess&#227;o</text><polygon fill="#181818" points="238,404.9219,228,408.9219,238,412.9219,234,408.9219" style="stroke:#181818;stroke-width:1.0;"/><line style="stroke:#181818;stroke-width:1.0;" x1="232" x2="557" y1="408.9219" y2="408.9219"/><text fill="#000000" font-family="sans-serif" font-size="13" lengthAdjust="spacing" textLength="162" x="244" y="403.856">Retorna dados da sess&#227;o</text><polygon fill="#FF0000" points="238,434.0547,228,438.0547,238,442.0547,234,438.0547" style="stroke:#FF0000;stroke-width:1.0;"/><line style="stroke:#FF0000;stroke-width:2.0;" x1="540" x2="550" y1="433.0547" y2="443.0547"/><line style="stroke:#FF0000;stroke-width:2.0;" x1="540" x2="550" y1="443.0547" y2="433.0547"/><line style="stroke:#FF0000;stroke-width:1.0;" x1="232" x2="545" y1="438.0547" y2="438.0547"/><text fill="#000000" font-family="sans-serif" font-size="13" font-weight="bold" lengthAdjust="spacing" textLength="39" x="244" y="432.9888">[404]</text><text fill="#000000" font-family="sans-serif" font-size="13" lengthAdjust="spacing" textLength="152" x="287" y="432.9888">Sess&#227;o n&#227;o encontrada</text><polygon fill="#181818" points="60,463.1875,50,467.1875,60,471.1875,56,467.1875" style="stroke:#181818;stroke-width:1.0;"/><line style="stroke:#181818;stroke-width:1.0;" x1="54" x2="226" y1="467.1875" y2="467.1875"/><text fill="#000000" font-family="sans-serif" font-size="13" lengthAdjust="spacing" textLength="78" x="66" y="462.1216">Solicita voto</text><polygon fill="#181818" points="215,492.3203,225,496.3203,215,500.3203,219,496.3203" style="stroke:#181818;stroke-width:1.0;"/><line style="stroke:#181818;stroke-width:1.0;" x1="49" x2="221" y1="496.3203" y2="496.3203"/><text fill="#000000" font-family="sans-serif" font-size="13" lengthAdjust="spacing" textLength="71" x="56" y="491.2544">Insere voto</text><polygon fill="#181818" points="546,521.4531,556,525.4531,546,529.4531,550,525.4531" style="stroke:#181818;stroke-width:1.0;"/><line style="stroke:#181818;stroke-width:1.0;" x1="227" x2="552" y1="525.4531" y2="525.4531"/><text fill="#000000" font-family="sans-serif" font-size="13" lengthAdjust="spacing" textLength="91" x="234" y="520.3872">Computa voto</text><polygon fill="#FF0000" points="238,550.5859,228,554.5859,238,558.5859,234,554.5859" style="stroke:#FF0000;stroke-width:1.0;"/><line style="stroke:#FF0000;stroke-width:2.0;" x1="540" x2="550" y1="549.5859" y2="559.5859"/><line style="stroke:#FF0000;stroke-width:2.0;" x1="540" x2="550" y1="559.5859" y2="549.5859"/><line style="stroke:#FF0000;stroke-width:1.0;" x1="232" x2="545" y1="554.5859" y2="554.5859"/><text fill="#000000" font-family="sans-serif" font-size="13" font-weight="bold" lengthAdjust="spacing" textLength="78" x="244" y="549.52">[404](001)</text><text fill="#000000" font-family="sans-serif" font-size="13" lengthAdjust="spacing" textLength="191" x="326" y="549.52">Sess&#227;o de vota&#231;&#227;o encerrada</text><polygon fill="#181818" points="60,579.7188,50,583.7188,60,587.7188,56,583.7188" style="stroke:#181818;stroke-width:1.0;"/><line style="stroke:#181818;stroke-width:1.0;" x1="54" x2="226" y1="583.7188" y2="583.7188"/><text fill="#000000" font-family="sans-serif" font-size="13" lengthAdjust="spacing" textLength="90" x="66" y="578.6528">Confirma voto</text><path d="M10,605.7188 L129,605.7188 L129,612.8516 L119,622.8516 L10,622.8516 L10,605.7188 " fill="#EEEEEE" style="stroke:#000000;stroke-width:1.5;"/><rect fill="none" height="191.9297" style="stroke:#000000;stroke-width:1.5;" width="575.5" x="10" y="605.7188"/><text fill="#000000" font-family="sans-serif" font-size="13" font-weight="bold" lengthAdjust="spacing" textLength="74" x="25" y="618.7856">Resultado</text><polygon fill="#181818" points="215,639.9844,225,643.9844,215,647.9844,219,643.9844" style="stroke:#181818;stroke-width:1.0;"/><line style="stroke:#181818;stroke-width:1.0;" x1="49" x2="221" y1="643.9844" y2="643.9844"/><text fill="#000000" font-family="sans-serif" font-size="13" lengthAdjust="spacing" textLength="154" x="56" y="638.9185">Insere c&#243;digo de sess&#227;o</text><polygon fill="#181818" points="546,669.1172,556,673.1172,546,677.1172,550,673.1172" style="stroke:#181818;stroke-width:1.0;"/><line style="stroke:#181818;stroke-width:1.0;" x1="227" x2="552" y1="673.1172" y2="673.1172"/><text fill="#000000" font-family="sans-serif" font-size="13" lengthAdjust="spacing" textLength="151" x="234" y="668.0513">Busca dados da sess&#227;o</text><polygon fill="#181818" points="238,698.25,228,702.25,238,706.25,234,702.25" style="stroke:#181818;stroke-width:1.0;"/><line style="stroke:#181818;stroke-width:1.0;" x1="232" x2="557" y1="702.25" y2="702.25"/><text fill="#000000" font-family="sans-serif" font-size="13" lengthAdjust="spacing" textLength="162" x="244" y="697.1841">Retorna dados da sess&#227;o</text><polygon fill="#FF0000" points="238,727.3828,228,731.3828,238,735.3828,234,731.3828" style="stroke:#FF0000;stroke-width:1.0;"/><line style="stroke:#FF0000;stroke-width:2.0;" x1="540" x2="550" y1="726.3828" y2="736.3828"/><line style="stroke:#FF0000;stroke-width:2.0;" x1="540" x2="550" y1="736.3828" y2="726.3828"/><line style="stroke:#FF0000;stroke-width:1.0;" x1="232" x2="545" y1="731.3828" y2="731.3828"/><text fill="#000000" font-family="sans-serif" font-size="13" font-weight="bold" lengthAdjust="spacing" textLength="39" x="244" y="726.3169">[404]</text><text fill="#000000" font-family="sans-serif" font-size="13" lengthAdjust="spacing" textLength="152" x="287" y="726.3169">Sess&#227;o n&#227;o encontrada</text><polygon fill="#FF0000" points="238,756.5156,228,760.5156,238,764.5156,234,760.5156" style="stroke:#FF0000;stroke-width:1.0;"/><line style="stroke:#FF0000;stroke-width:2.0;" x1="540" x2="550" y1="755.5156" y2="765.5156"/><line style="stroke:#FF0000;stroke-width:2.0;" x1="540" x2="550" y1="765.5156" y2="755.5156"/><line style="stroke:#FF0000;stroke-width:1.0;" x1="232" x2="545" y1="760.5156" y2="760.5156"/><text fill="#000000" font-family="sans-serif" font-size="13" font-weight="bold" lengthAdjust="spacing" textLength="78" x="244" y="755.4497">[404](002)</text><text fill="#000000" font-family="sans-serif" font-size="13" lengthAdjust="spacing" textLength="225" x="326" y="755.4497">Sess&#227;o de vota&#231;&#227;o em andamento</text><polygon fill="#181818" points="60,785.6484,50,789.6484,60,793.6484,56,789.6484" style="stroke:#181818;stroke-width:1.0;"/><line style="stroke:#181818;stroke-width:1.0;" x1="54" x2="226" y1="789.6484" y2="789.6484"/><text fill="#000000" font-family="sans-serif" font-size="13" lengthAdjust="spacing" textLength="98" x="66" y="784.5825">Exibe resultado</text><!--SRC=[tPI_JiCm4CRtFCL9B12fKeewTK22mj0DjOAbwd3OryfIOWVRYVew5GCIAu-G5-DSGjC_QTgP9OgIxpv_zplRNlcKO4hlHVMbXKAG15IIziQ1H2Z9kkh3G3-AK7XZuSKLrTeg4-LelH8gH-rXh3tP1GhQ-th_F8wYfJL53YEhiFeCHcplo0NF2BPcqBjhF8ORzOvg-oV8s7G84uwhdF88ejsOLNkU46eulkQAwbkgPOj-rPjTMPBp_R8udWsIP1x7y8YIcIXTLkjKyUjXihzcXl2qKc_KjX1fMGDvDRu3m5WxijGUzPZ6G-44psqJJs87XGR22N47Wa50CFrLWmuFqi9eRr7YQH9Ja_9ku3cLb_HRYuux79aiBngNir6lawH_ivDNRhphZSAvoNR77XczK3Qh5socDY5Nf9xP_QVHNKBpzZJD351BpCADSUv4s2q-Hle3]--></g></svg>